# xmcd CD database file
#
# Track frame offsets:
#	150
#	36363
#	70222
#	101459
#	131197
#	162191
#	203594
#	229720
#	255341
#	292521
#	315329
#
# Disc length: 4627 seconds
#
# Revision: 0
# Processed by: cddbd v1.5.2PL0 Copyright (c) Steve Scherf et al.
# Submitted via: CDex 1.51
#
DISCID=8912110b
DTITLE=Archie Shepp Attica Blues Orchestra Live - I Hear The Sound
DYEAR=2014
DGENRE=Blues
TTITLE0=Attica Blues (Live)
TTITLE1=Arms (Live)
TTITLE2=Blues For Brother G. Jackson (Live)
TTITLE3=Come Sunday (Live)
TTITLE4=The Cry Of My People (Live)
TTITLE5=Quiet Dawn (Live)
TTITLE6=Déjà Vu (Live)
TTITLE7=Steam (Live)
TTITLE8=Goodbye Sweet Pop's (Live)
TTITLE9=Ballad For A Child (Live)
TTITLE10=Mama Too Tight (Live)
EXTD=YEAR: 2014
EXTT0=
EXTT1=
EXTT2=
EXTT3=
EXTT4=
EXTT5=
EXTT6=
EXTT7=
EXTT8=
EXTT9=
EXTT10=
PLAYORDER=
